<?xml version="1.0" encoding="UTF-8" standalone="no"?>
<!DOCTYPE svg PUBLIC "-//W3C//DTD SVG 1.1//EN" "http://www.w3.org/Graphics/SVG/1.1/DTD/svg11.dtd">
<svg width="100%" height="100%" viewBox="0 0 25 24" version="1.1" xmlns="http://www.w3.org/2000/svg" xmlns:xlink="http://www.w3.org/1999/xlink" xml:space="preserve" xmlns:serif="http://www.serif.com/" style="fill-rule:evenodd;clip-rule:evenodd;stroke-linejoin:round;stroke-miterlimit:2;">
    <g transform="matrix(1,0,0,1,-209,-450)">
        <g transform="matrix(0.25,0,0,1.26316,164.525,-118.421)">
            <rect id="ab-close-button" x="181" y="450" width="96" height="19" style="fill:none;"/>
            <g id="ab-close-button1" serif:id="ab-close-button">
                <g transform="matrix(2.49922,-0.494637,2.49922,0.494637,-1470.89,340.778)">
                    <path d="M229.775,451L230.775,453L212.775,453L212.775,471L210.775,470L210.775,451L229.775,451Z" style="fill:rgb(100,0,125);"/>
                </g>
                <g transform="matrix(2.49922,-0.494637,2.49922,0.494637,-1450.9,340.778)">
                    <path d="M226.775,451L227.775,453L212.775,453L212.775,468L210.775,467L210.775,451L226.775,451Z" style="fill:rgb(100,0,125);fill-opacity:0.5;"/>
                </g>
                <g transform="matrix(2.49922,-0.494637,2.49922,0.494637,-1430.91,340.778)">
                    <path d="M223.775,451L224.775,453L212.775,453L212.775,465L210.775,464L210.775,451L223.775,451Z" style="fill:rgb(100,0,125);fill-opacity:0.25;"/>
                </g>
            </g>
        </g>
    </g>
</svg>
