<?xml version="1.0" encoding="UTF-8" standalone="no"?>
<!DOCTYPE svg PUBLIC "-//W3C//DTD SVG 1.1//EN" "http://www.w3.org/Graphics/SVG/1.1/DTD/svg11.dtd">
<svg width="100%" height="100%" viewBox="0 0 32 33" version="1.1" xmlns="http://www.w3.org/2000/svg" xmlns:xlink="http://www.w3.org/1999/xlink" xml:space="preserve" xmlns:serif="http://www.serif.com/" style="fill-rule:evenodd;clip-rule:evenodd;stroke-linejoin:round;stroke-miterlimit:2;">
    <g transform="matrix(1,0,0,1,0,-301)">
        <g transform="matrix(0.888889,0,0,0.909583,76.8889,60.8618)">
            <rect id="dp-login-button" x="-86.5" y="264.819" width="36" height="35.181" style="fill:none;"/>
            <clipPath id="_clip1">
                <rect id="dp-login-button1" serif:id="dp-login-button" x="-86.5" y="264.819" width="36" height="35.181"/>
            </clipPath>
            <g clip-path="url(#_clip1)">
                <g id="log-in-circle" transform="matrix(1.16129,0,0,1.13487,-109.726,-128.981)">
                    <path d="M35.5,347C44.055,347 51,353.945 51,362.5C51,371.055 44.055,378 35.5,378C26.945,378 20,371.055 20,362.5C20,353.945 26.945,347 35.5,347ZM35.5,350.875C29.084,350.875 23.875,356.084 23.875,362.5C23.875,368.916 29.084,374.125 35.5,374.125C41.916,374.125 47.125,368.916 47.125,362.5C47.125,356.084 41.916,350.875 35.5,350.875Z" style="fill:white;"/>
                    <circle cx="35.5" cy="362.5" r="15.5" style="fill:rgb(62,62,62);"/>
                </g>
                <g transform="matrix(1.16129,0,0,1.13487,-192.177,-55.2142)">
                    <path d="M95.54,308.46L106.5,297.5L117.46,308.46C114.553,311.367 110.611,313 106.5,313C102.389,313 98.447,311.367 95.54,308.46ZM101.49,307.99C103.04,308.73 104.75,309.125 106.5,309.125C108.25,309.125 109.96,308.73 111.51,307.99C111.51,307.99 106.5,302.98 106.5,302.98L101.49,307.99Z" style="fill:white;"/>
                    <path d="M95.54,308.46C98.447,311.367 102.389,313 106.5,313C110.611,313 114.553,311.367 117.46,308.46L106.5,297.5L95.54,308.46Z" style="fill:rgb(255,162,44);"/>
                </g>
                <g transform="matrix(1.16129,0,0,1.13487,-190.911,-56.4555)">
                    <path d="M105.41,286C110.151,286 114,289.849 114,294.59C114,299.332 110.151,303.181 105.41,303.181C100.668,303.181 96.819,299.332 96.819,294.59C96.819,289.849 100.668,286 105.41,286ZM105.41,289.875C102.807,289.875 100.694,291.988 100.694,294.59C100.694,297.193 102.807,299.306 105.41,299.306C108.012,299.306 110.125,297.193 110.125,294.59C110.125,291.988 108.012,289.875 105.41,289.875Z" style="fill:white;"/>
                    <circle cx="105.41" cy="294.59" r="8.59" style="fill:rgb(255,162,44);"/>
                </g>
            </g>
        </g>
    </g>
</svg>
