<?xml version="1.0" encoding="UTF-8" standalone="no"?>
<!DOCTYPE svg PUBLIC "-//W3C//DTD SVG 1.1//EN" "http://www.w3.org/Graphics/SVG/1.1/DTD/svg11.dtd">
<svg width="100%" height="100%" viewBox="0 0 33 33" version="1.1" xmlns="http://www.w3.org/2000/svg" xmlns:xlink="http://www.w3.org/1999/xlink" xml:space="preserve" xmlns:serif="http://www.serif.com/" style="fill-rule:evenodd;clip-rule:evenodd;stroke-linejoin:round;stroke-miterlimit:2;">
    <g transform="matrix(1,0,0,1,-86,-298)">
        <g transform="matrix(0.888889,0,0,0.909583,163.526,58.0337)">
            <rect id="dp-list-button" x="-86.5" y="264.819" width="36" height="35.181" style="fill:none;"/>
            <clipPath id="_clip1">
                <rect id="dp-list-button1" serif:id="dp-list-button" x="-86.5" y="264.819" width="36" height="35.181"/>
            </clipPath>
            <g clip-path="url(#_clip1)">
                <g id="log-in-circle" transform="matrix(1.16129,0,0,1.13487,-109.726,-128.981)">
                    <path d="M35.5,347C44.055,347 51,353.945 51,362.5C51,371.055 44.055,378 35.5,378C26.945,378 20,371.055 20,362.5C20,353.945 26.945,347 35.5,347ZM35.5,350.875C29.084,350.875 23.875,356.084 23.875,362.5C23.875,368.916 29.084,374.125 35.5,374.125C41.916,374.125 47.125,368.916 47.125,362.5C47.125,356.084 41.916,350.875 35.5,350.875Z" style="fill:white;"/>
                    <circle cx="35.5" cy="362.5" r="15.5" style="fill:rgb(62,62,62);"/>
                </g>
                <g transform="matrix(1.125,0,0,1.0994,-183.967,-63.8025)">
                    <rect x="91.637" y="304.909" width="7" height="4" style="fill:rgb(153,153,153);"/>
                </g>
                <g transform="matrix(1.125,0,0,1.0994,-183.967,-52.8085)">
                    <rect x="91.637" y="304.909" width="7" height="4" style="fill:rgb(153,153,153);"/>
                </g>
                <g transform="matrix(1.125,0,0,1.0994,-183.967,-58.213)">
                    <rect x="91.637" y="304.909" width="7" height="4" style="fill:rgb(153,153,153);"/>
                </g>
                <g transform="matrix(1.125,0,0,1.0994,-183.967,-47.3114)">
                    <rect x="91.637" y="304.909" width="7" height="4" style="fill:rgb(153,153,153);"/>
                </g>
                <g transform="matrix(1.125,0,0,1.0994,-174.967,-63.8025)">
                    <rect x="91.637" y="304.909" width="7" height="4" style="fill:rgb(153,153,153);"/>
                </g>
                <g transform="matrix(1.125,0,0,1.0994,-174.967,-52.8085)">
                    <rect x="91.637" y="304.909" width="7" height="4" style="fill:white;"/>
                </g>
                <g transform="matrix(1.125,0,0,1.0994,-174.967,-58.2662)">
                    <rect x="91.637" y="304.909" width="7" height="4" style="fill:white;"/>
                </g>
                <g transform="matrix(1.125,0,0,1.0994,-174.967,-47.3646)">
                    <rect x="91.637" y="304.909" width="7" height="4" style="fill:white;"/>
                </g>
                <g transform="matrix(1.125,0,0,1.0994,-165.967,-63.8025)">
                    <rect x="91.637" y="304.909" width="7" height="4" style="fill:rgb(153,153,153);"/>
                </g>
                <g transform="matrix(1.125,0,0,1.0994,-165.967,-52.8085)">
                    <rect x="91.637" y="304.909" width="7" height="4" style="fill:white;"/>
                </g>
                <g transform="matrix(1.125,0,0,1.0994,-165.967,-58.213)">
                    <rect x="91.637" y="304.909" width="7" height="4" style="fill:white;"/>
                </g>
                <g transform="matrix(1.125,0,0,1.0994,-165.967,-47.3114)">
                    <rect x="91.637" y="304.909" width="7" height="4" style="fill:white;"/>
                </g>
            </g>
        </g>
    </g>
</svg>
