<?xml version="1.0" encoding="UTF-8" standalone="no"?>
<!DOCTYPE svg PUBLIC "-//W3C//DTD SVG 1.1//EN" "http://www.w3.org/Graphics/SVG/1.1/DTD/svg11.dtd">
<svg width="100%" height="100%" viewBox="0 0 33 33" version="1.1" xmlns="http://www.w3.org/2000/svg" xmlns:xlink="http://www.w3.org/1999/xlink" xml:space="preserve" xmlns:serif="http://www.serif.com/" style="fill-rule:evenodd;clip-rule:evenodd;stroke-linecap:square;stroke-miterlimit:1.5;">
    <g transform="matrix(1,0,0,1,-43,-386)">
        <g transform="matrix(0.888889,0,0,0.909583,119.91,145.89)">
            <rect id="dp-load-button" x="-86.5" y="264.819" width="36" height="35.181" style="fill:none;"/>
            <clipPath id="_clip1">
                <rect id="dp-load-button1" serif:id="dp-load-button" x="-86.5" y="264.819" width="36" height="35.181"/>
            </clipPath>
            <g clip-path="url(#_clip1)">
                <g id="log-in-circle" transform="matrix(1.16129,0,0,1.13487,-109.726,-128.981)">
                    <path d="M35.5,347C44.055,347 51,353.945 51,362.5C51,371.055 44.055,378 35.5,378C26.945,378 20,371.055 20,362.5C20,353.945 26.945,347 35.5,347ZM35.5,350.875C29.084,350.875 23.875,356.084 23.875,362.5C23.875,368.916 29.084,374.125 35.5,374.125C41.916,374.125 47.125,368.916 47.125,362.5C47.125,356.084 41.916,350.875 35.5,350.875Z" style="fill:white;"/>
                    <circle cx="35.5" cy="362.5" r="15.5" style="fill:rgb(62,62,62);"/>
                </g>
                <g transform="matrix(1.125,0,0,-1.0994,-138.747,561.628)">
                    <path d="M50,254.53L63,267L75,254.53" style="fill:none;stroke:white;stroke-width:3px;"/>
                </g>
                <g transform="matrix(1.6875,0,0,2.28338,-171.437,-276.849)">
                    <rect x="57" y="243" width="8" height="2" style="fill:white;"/>
                </g>
                <g transform="matrix(1.6875,0,0,2.28338,-171.437,-269.238)">
                    <rect x="57" y="243" width="8" height="2" style="fill:white;"/>
                </g>
                <g transform="matrix(1.6875,0,0,2.28338,-171.437,-261.627)">
                    <rect x="57" y="243" width="8" height="2" style="fill:white;"/>
                </g>
            </g>
        </g>
    </g>
</svg>
