<?xml version="1.0" encoding="UTF-8" standalone="no"?>
<!DOCTYPE svg PUBLIC "-//W3C//DTD SVG 1.1//EN" "http://www.w3.org/Graphics/SVG/1.1/DTD/svg11.dtd">
<svg width="100%" height="100%" viewBox="0 0 33 33" version="1.1" xmlns="http://www.w3.org/2000/svg" xmlns:xlink="http://www.w3.org/1999/xlink" xml:space="preserve" xmlns:serif="http://www.serif.com/" style="fill-rule:evenodd;clip-rule:evenodd;stroke-linejoin:round;stroke-miterlimit:2;">
    <g transform="matrix(1,0,0,1,-131,-347)">
        <g transform="matrix(0.888889,0,0,0.909583,208.873,106.958)">
            <rect id="dp-markdown-button" x="-86.5" y="264.819" width="36" height="35.181" style="fill:none;"/>
            <clipPath id="_clip1">
                <rect id="dp-markdown-button1" serif:id="dp-markdown-button" x="-86.5" y="264.819" width="36" height="35.181"/>
            </clipPath>
            <g clip-path="url(#_clip1)">
                <g id="log-in-circle" transform="matrix(1.16129,0,0,1.13487,-109.726,-128.981)">
                    <path d="M35.5,347C44.055,347 51,353.945 51,362.5C51,371.055 44.055,378 35.5,378C26.945,378 20,371.055 20,362.5C20,353.945 26.945,347 35.5,347ZM35.5,350.875C29.084,350.875 23.875,356.084 23.875,362.5C23.875,368.916 29.084,374.125 35.5,374.125C41.916,374.125 47.125,368.916 47.125,362.5C47.125,356.084 41.916,350.875 35.5,350.875Z" style="fill:white;"/>
                    <circle cx="35.5" cy="362.5" r="15.5" style="fill:rgb(62,62,62);"/>
                </g>
                <g transform="matrix(1.125,0,0,1.0994,-235.14,-70.3751)">
                    <g>
                        <path d="M136.668,311.563C135.612,311.563 135.084,312.355 135.084,313.123L135.084,328.651C135.084,329.491 135.684,330.187 136.524,330.187C137.364,330.187 137.988,329.491 137.988,328.651L137.988,323.275L137.892,317.539L140.676,323.515C141.012,324.283 141.42,324.667 142.188,324.667C142.98,324.667 143.436,324.235 143.796,323.491L146.652,317.179L146.556,323.227L146.556,328.651C146.556,329.491 147.156,330.187 147.996,330.187C148.836,330.187 149.46,329.491 149.46,328.651L149.46,313.051C149.46,312.235 148.836,311.563 147.828,311.563C146.916,311.563 146.412,312.043 146.1,312.715L142.26,320.779L138.468,312.715C138.084,311.875 137.46,311.563 136.668,311.563Z" style="fill:rgb(0,165,32);fill-rule:nonzero;"/>
                        <path d="M158.148,328.723C158.148,329.539 158.796,330.211 159.636,330.211C160.452,330.211 161.124,329.539 161.124,328.723L161.124,313.075C161.124,312.235 160.452,311.563 159.636,311.563C158.796,311.563 158.148,312.235 158.148,313.075L158.148,318.163C157.548,317.203 156.66,316.603 155.22,316.603C152.292,316.603 150.876,318.619 150.876,322.219L150.876,324.619C150.876,328.195 152.124,330.211 155.124,330.211C156.564,330.211 157.524,329.611 158.148,328.555L158.148,328.723ZM158.148,324.859C158.148,326.683 157.308,327.763 155.94,327.763C154.596,327.763 153.9,326.827 153.9,324.811L153.9,322.027C153.9,320.035 154.596,319.099 155.964,319.099C157.164,319.099 158.1,319.987 158.148,321.883L158.148,324.859Z" style="fill:rgb(0,165,32);fill-rule:nonzero;"/>
                    </g>
                </g>
            </g>
        </g>
    </g>
</svg>
