<?xml version="1.0" encoding="UTF-8" standalone="no"?>
<!DOCTYPE svg PUBLIC "-//W3C//DTD SVG 1.1//EN" "http://www.w3.org/Graphics/SVG/1.1/DTD/svg11.dtd">
<svg width="100%" height="100%" viewBox="0 0 33 33" version="1.1" xmlns="http://www.w3.org/2000/svg" xmlns:xlink="http://www.w3.org/1999/xlink" xml:space="preserve" xmlns:serif="http://www.serif.com/" style="fill-rule:evenodd;clip-rule:evenodd;stroke-linejoin:round;stroke-miterlimit:2;">
    <g transform="matrix(1,0,0,1,-252,-392)">
        <g transform="matrix(0.888889,0,0,0.909583,329.15,151.862)">
            <rect id="edit-icon-alpha" x="-86.5" y="264.819" width="36" height="35.181" style="fill:none;"/>
            <clipPath id="_clip1">
                <rect id="edit-icon-alpha1" serif:id="edit-icon-alpha" x="-86.5" y="264.819" width="36" height="35.181"/>
            </clipPath>
            <g clip-path="url(#_clip1)">
                <g transform="matrix(1.125,0,0,1.0994,-314.031,-105.68)">
                    <path d="M224.461,329.624L224.918,333.354C225.534,333.457 226.143,333.597 226.743,333.771L228.773,330.608C230.169,331.097 231.505,331.74 232.758,332.527L231.551,336.086C232.061,336.446 232.55,336.836 233.014,337.253L236.215,335.285C237.261,336.33 238.186,337.49 238.973,338.742L236.342,341.425C236.645,341.971 236.916,342.534 237.154,343.112L240.892,342.727C241.38,344.123 241.71,345.569 241.876,347.039L238.341,348.314C238.377,348.938 238.377,349.562 238.341,350.186L241.876,351.461C241.71,352.931 241.38,354.377 240.892,355.773L237.154,355.388C236.916,355.966 236.645,356.529 236.342,357.075L238.973,359.758C238.186,361.01 237.261,362.17 236.215,363.215L233.014,361.247C232.55,361.664 232.061,362.054 231.551,362.414L232.758,365.973C231.505,366.76 230.169,367.403 228.773,367.892L226.743,364.729C226.143,364.903 225.534,365.043 224.918,365.146L224.461,368.876C222.992,369.041 221.508,369.041 220.039,368.876L219.582,365.146C218.966,365.043 218.357,364.903 217.757,364.729L215.727,367.892C214.331,367.403 212.995,366.76 211.742,365.973L212.949,362.414C212.439,362.054 211.95,361.664 211.486,361.247L208.285,363.215C207.239,362.17 206.314,361.01 205.527,359.758L208.158,357.075C207.855,356.529 207.584,355.966 207.346,355.388L203.608,355.773C203.12,354.377 202.79,352.931 202.624,351.461L206.159,350.186C206.123,349.562 206.123,348.938 206.159,348.314L202.624,347.039C202.79,345.569 203.12,344.123 203.608,342.727L207.346,343.112C207.584,342.534 207.855,341.971 208.158,341.425L205.527,338.742C206.314,337.49 207.239,336.33 208.285,335.285L211.486,337.253C211.95,336.836 212.439,336.446 212.949,336.086L211.742,332.527C212.995,331.74 214.331,331.097 215.727,330.608L217.757,333.771C218.357,333.597 218.966,333.457 219.582,333.354L220.039,329.624C221.508,329.459 222.992,329.459 224.461,329.624ZM222.25,342.104C218.306,342.104 215.104,345.306 215.104,349.25C215.104,353.194 218.306,356.396 222.25,356.396C226.194,356.396 229.396,353.194 229.396,349.25C229.396,345.306 226.194,342.104 222.25,342.104Z" style="fill-opacity:0.2;"/>
                </g>
            </g>
        </g>
    </g>
</svg>
