<?xml version="1.0" encoding="UTF-8" standalone="no"?>
<!DOCTYPE svg PUBLIC "-//W3C//DTD SVG 1.1//EN" "http://www.w3.org/Graphics/SVG/1.1/DTD/svg11.dtd">
<svg width="100%" height="100%" viewBox="0 0 19 19" version="1.1" xmlns="http://www.w3.org/2000/svg" xmlns:xlink="http://www.w3.org/1999/xlink" xml:space="preserve" xmlns:serif="http://www.serif.com/" style="fill-rule:evenodd;clip-rule:evenodd;stroke-linecap:round;stroke-linejoin:round;stroke-miterlimit:1.5;">
    <g transform="matrix(1,0,0,1,-177,-31)">
        <g transform="matrix(0.62069,0,0,0.666667,124.448,13.5261)">
            <rect id="help" x="85" y="27" width="29" height="27" style="fill:none;"/>
            <g id="help1" serif:id="help">
                <g transform="matrix(1.61111,0,0,1.5,-199.695,27.75)">
                    <circle cx="185.707" cy="8.5" r="8.5" style="fill:rgb(204,204,204);"/>
                    <path d="M185.707,0C190.398,0 194.207,3.809 194.207,8.5C194.207,13.191 190.398,17 185.707,17C181.016,17 177.207,13.191 177.207,8.5C177.207,3.809 181.016,0 185.707,0ZM185.707,1C181.568,1 178.207,4.361 178.207,8.5C178.207,12.639 181.568,16 185.707,16C189.846,16 193.207,12.639 193.207,8.5C193.207,4.361 189.846,1 185.707,1Z" style="fill:rgb(153,153,153);"/>
                </g>
                <g transform="matrix(1.37724,0,0,1.28226,-157.627,28.1855)">
                    <path d="M186.207,13C186.207,9.75 190.207,10.806 190.207,6C190.207,3 188.643,2 186.707,2C184.5,2 183.207,3.088 183.207,4.75" style="fill:none;stroke:rgb(100,0,125);stroke-width:1.17px;"/>
                </g>
                <g transform="matrix(1.37724,0,0,1.28226,-156.25,29.4677)">
                    <circle cx="185.457" cy="15.25" r="1.25" style="fill:none;stroke:rgb(100,0,125);stroke-width:1.17px;"/>
                </g>
            </g>
        </g>
    </g>
</svg>
