<?xml version="1.0" encoding="UTF-8" standalone="no"?>
<!DOCTYPE svg PUBLIC "-//W3C//DTD SVG 1.1//EN" "http://www.w3.org/Graphics/SVG/1.1/DTD/svg11.dtd">
<svg width="100%" height="100%" viewBox="0 0 20 21" version="1.1" xmlns="http://www.w3.org/2000/svg" xmlns:xlink="http://www.w3.org/1999/xlink" xml:space="preserve" xmlns:serif="http://www.serif.com/" style="fill-rule:evenodd;clip-rule:evenodd;stroke-linejoin:round;stroke-miterlimit:2;">
    <g transform="matrix(1,0,0,1,-235,-120)">
        <g transform="matrix(0.689655,0,0,0.740741,176.379,100.27)">
            <rect id="image-navbar-icon" x="85" y="27" width="29" height="27" style="fill:none;"/>
            <clipPath id="_clip1">
                <rect id="image-navbar-icon1" serif:id="image-navbar-icon" x="85" y="27" width="29" height="27"/>
            </clipPath>
            <g clip-path="url(#_clip1)">
                <g transform="matrix(1.45,0,0,1.35,-48.4,-344.25)">
                    <g id="image">
                        <rect x="92" y="275" width="20" height="20" style="fill:none;"/>
                        <clipPath id="_clip2">
                            <rect x="92" y="275" width="20" height="20"/>
                        </clipPath>
                        <g clip-path="url(#_clip2)">
                            <path d="M89,287L97.41,278.59L103.239,284.419L106.555,281.103L113.578,288.127L114,300L89,299L89,287Z"/>
                        </g>
                        <path d="M112,275L112,295L92,295L92,275L112,275ZM111,276L93,276L93,294L111,294L111,276Z"/>
                    </g>
                </g>
            </g>
        </g>
    </g>
</svg>
