<?xml version="1.0" encoding="UTF-8" standalone="no"?>
<!DOCTYPE svg PUBLIC "-//W3C//DTD SVG 1.1//EN" "http://www.w3.org/Graphics/SVG/1.1/DTD/svg11.dtd">
<svg width="100%" height="100%" viewBox="0 0 35 27" version="1.1" xmlns="http://www.w3.org/2000/svg" xmlns:xlink="http://www.w3.org/1999/xlink" xml:space="preserve" xmlns:serif="http://www.serif.com/" style="fill-rule:evenodd;clip-rule:evenodd;stroke-linejoin:round;stroke-miterlimit:2;">
    <g transform="matrix(1,0,0,1,-311,-67)">
        <g transform="matrix(0.76087,0,0,0.530612,199.913,86.3081)">
            <rect id="link-note-layer" x="146" y="-35" width="46" height="49" style="fill:none;"/>
            <clipPath id="_clip1">
                <rect id="link-note-layer1" serif:id="link-note-layer" x="146" y="-35" width="46" height="49"/>
            </clipPath>
            <g clip-path="url(#_clip1)">
                <g transform="matrix(1.25714,0,0,1.30769,-46.7429,8.88462)">
                    <g transform="matrix(1.04545,0,0,1.53725,-3.5,-26.8333)">
                        <path d="M185,5L180,20L150,20L155,5L185,5Z" style="fill:rgb(62,62,62);"/>
                    </g>
                    <g transform="matrix(2.09091,0,0,0.514706,-177.045,-16.0588)">
                        <rect x="171" y="-34" width="1" height="28" style="fill:rgb(96,96,96);"/>
                    </g>
                </g>
                <g transform="matrix(2.12789,0,0,1.88462,-529.355,-42.5385)">
                    <rect x="318" y="14" width="21" height="16" style="fill:none;"/>
                    <clipPath id="_clip2">
                        <rect x="318" y="14" width="21" height="16"/>
                    </clipPath>
                    <g clip-path="url(#_clip2)">
                        <g id="point-cursor" transform="matrix(0.553753,0,0,0.962963,273.402,-17)">
                            <g transform="matrix(1.93333,0,0,1.8,-46.4667,-5.4)">
                                <circle cx="75.5" cy="25.5" r="1.5" style="fill:rgb(0,213,231);"/>
                            </g>
                            <g transform="matrix(1.12778,0,0,2.7,15.0778,20.25)">
                                <rect x="62" y="7" width="9" height="1" style="fill:rgb(0,213,231);"/>
                            </g>
                            <g transform="matrix(6.90565e-17,1.05,-2.9,1.65327e-16,121.25,-38.1)">
                                <rect x="62" y="7" width="9" height="1" style="fill:rgb(0,213,231);"/>
                            </g>
                            <g transform="matrix(6.90565e-17,1.05,-2.9,1.65327e-16,121.25,-20.55)">
                                <rect x="62" y="7" width="9" height="1" style="fill:rgb(0,213,231);"/>
                            </g>
                            <g transform="matrix(1.11735,0,0,2.65975,34.5742,20.5519)">
                                <rect x="62" y="7" width="9" height="1" style="fill:rgb(0,213,231);"/>
                            </g>
                        </g>
                    </g>
                </g>
            </g>
        </g>
    </g>
</svg>
