<?xml version="1.0" encoding="UTF-8" standalone="no"?>
<!DOCTYPE svg PUBLIC "-//W3C//DTD SVG 1.1//EN" "http://www.w3.org/Graphics/SVG/1.1/DTD/svg11.dtd">
<svg width="100%" height="100%" viewBox="0 0 35 27" version="1.1" xmlns="http://www.w3.org/2000/svg" xmlns:xlink="http://www.w3.org/1999/xlink" xml:space="preserve" xmlns:serif="http://www.serif.com/" style="fill-rule:evenodd;clip-rule:evenodd;stroke-linejoin:round;stroke-miterlimit:2;">
    <g transform="matrix(1,0,0,1,-270,-66)">
        <g transform="matrix(0.76087,0,0,0.530612,158.913,85.3081)">
            <rect id="map-layer" x="146" y="-35" width="46" height="49" style="fill:none;"/>
            <g id="map-layer1" serif:id="map-layer">
                <g transform="matrix(1.25714,0,0,1.30769,-46.7429,8.88462)">
                    <g transform="matrix(1.04545,0,0,1.53725,-3.5,-26.8333)">
                        <path d="M185,5L180,20L150,20L155,5L185,5Z" style="fill:rgb(62,62,62);"/>
                    </g>
                    <g transform="matrix(2.09091,0,0,0.514706,-177.045,-16.0588)">
                        <rect x="171" y="-34" width="1" height="28" style="fill:rgb(96,96,96);"/>
                    </g>
                </g>
                <g transform="matrix(1.31429,0,0,1.88462,-210.171,-53.2325)">
                    <rect x="272" y="19.674" width="31" height="16" style="fill:none;"/>
                    <clipPath id="_clip1">
                        <rect x="272" y="19.674" width="31" height="16"/>
                    </clipPath>
                    <g clip-path="url(#_clip1)">
                        <g id="compass" transform="matrix(0.4,0,0,0.4,129,-120)">
                            <g transform="matrix(0.793946,0,0,0.8,78.4518,70)">
                                <circle cx="405" cy="375" r="15" style="fill:rgb(0,213,231);"/>
                            </g>
                            <g transform="matrix(2.5,0,0,2.5,-5.32907e-13,355)">
                                <path d="M153.792,7.931L148,6L153.792,4.069C153.602,4.679 153.5,5.328 153.5,6C153.5,6.672 153.602,7.321 153.792,7.931ZM158.069,-0.208L160,-6L161.931,-0.208C161.321,-0.398 160.672,-0.5 160,-0.5C159.328,-0.5 158.679,-0.398 158.069,-0.208ZM166.208,4.069L172,6L166.208,7.931C166.398,7.321 166.5,6.672 166.5,6C166.5,5.328 166.398,4.679 166.208,4.069ZM161.931,12.208L160,18L158.069,12.208C158.679,12.398 159.328,12.5 160,12.5C160.672,12.5 161.321,12.398 161.931,12.208Z" style="fill:rgb(0,213,231);"/>
                            </g>
                        </g>
                    </g>
                </g>
            </g>
        </g>
    </g>
</svg>
