<?xml version="1.0" encoding="UTF-8" standalone="no"?>
<!DOCTYPE svg PUBLIC "-//W3C//DTD SVG 1.1//EN" "http://www.w3.org/Graphics/SVG/1.1/DTD/svg11.dtd">
<svg width="100%" height="100%" viewBox="0 0 21 21" version="1.1" xmlns="http://www.w3.org/2000/svg" xmlns:xlink="http://www.w3.org/1999/xlink" xml:space="preserve" xmlns:serif="http://www.serif.com/" style="fill-rule:evenodd;clip-rule:evenodd;stroke-linejoin:round;stroke-miterlimit:2;">
    <g transform="matrix(1,0,0,1,-237,-94)">
        <g transform="matrix(0.689655,0,0,0.740741,179.299,74.927)">
            <rect id="markdown-navbar-icon" x="85" y="27" width="29" height="27" style="fill:none;"/>
            <clipPath id="_clip1">
                <rect id="markdown-navbar-icon1" serif:id="markdown-navbar-icon" x="85" y="27" width="29" height="27"/>
            </clipPath>
            <g clip-path="url(#_clip1)">
                <g transform="matrix(0.98993,0,0,0.944471,167.177,-226.133)">
                    <g transform="matrix(1.125,0,0,1.0994,-234.982,-77.7147)">
                        <path d="M136.668,318.371C135.612,318.371 135.084,319.163 135.084,319.931L135.084,335.459C135.084,336.299 135.684,336.995 136.524,336.995C137.364,336.995 137.988,336.299 137.988,335.459L137.988,330.083L137.892,324.347L140.676,330.323C141.012,331.091 141.42,331.475 142.188,331.475C142.98,331.475 143.436,331.043 143.796,330.299L146.652,323.987L146.556,330.035L146.556,335.459C146.556,336.299 147.156,336.995 147.996,336.995C148.836,336.995 149.46,336.299 149.46,335.459L149.46,319.859C149.46,319.043 148.836,318.371 147.828,318.371C146.916,318.371 146.412,318.851 146.1,319.523L142.26,327.587L138.468,319.523C138.084,318.683 137.46,318.371 136.668,318.371Z"/>
                    </g>
                    <g transform="matrix(1.125,0,0,1.0994,-234.982,-77.7147)">
                        <path d="M158.148,335.531C158.148,336.347 158.796,337.019 159.636,337.019C160.452,337.019 161.124,336.347 161.124,335.531L161.124,319.883C161.124,319.043 160.452,318.371 159.636,318.371C158.796,318.371 158.148,319.043 158.148,319.883L158.148,324.971C157.548,324.011 156.66,323.411 155.22,323.411C152.292,323.411 150.876,325.427 150.876,329.027L150.876,331.427C150.876,335.003 152.124,337.019 155.124,337.019C156.564,337.019 157.524,336.419 158.148,335.363L158.148,335.531ZM158.148,331.667C158.148,333.491 157.308,334.571 155.94,334.571C154.596,334.571 153.9,333.635 153.9,331.619L153.9,328.835C153.9,326.843 154.596,325.907 155.964,325.907C157.164,325.907 158.1,326.795 158.148,328.691L158.148,331.667Z"/>
                    </g>
                </g>
            </g>
        </g>
    </g>
</svg>
