<?xml version="1.0" encoding="UTF-8" standalone="no"?>
<!DOCTYPE svg PUBLIC "-//W3C//DTD SVG 1.1//EN" "http://www.w3.org/Graphics/SVG/1.1/DTD/svg11.dtd">
<svg width="100%" height="100%" viewBox="0 0 24 24" version="1.1" xmlns="http://www.w3.org/2000/svg" xmlns:xlink="http://www.w3.org/1999/xlink" xml:space="preserve" xmlns:serif="http://www.serif.com/" style="fill-rule:evenodd;clip-rule:evenodd;stroke-linejoin:round;stroke-miterlimit:2;">
    <g transform="matrix(1,0,0,1,-210,-478)">
        <g transform="matrix(0.25,0,0,1.26316,164.75,-90.4211)">
            <rect id="move-up-top" x="181" y="450" width="96" height="19" style="fill:none;"/>
            <g id="move-up-top1" serif:id="move-up-top">
                <g transform="matrix(2.55578e-16,-0.826087,4,4.84756e-17,-1619,700.27)">
                    <path d="M291,451L297,462L291,473L294,473L300,462L294,451L291,451Z" style="fill:rgb(16,95,102);"/>
                </g>
                <g transform="matrix(2.55578e-16,-0.826087,4,4.84756e-17,-1619,704.4)">
                    <path d="M291,451L297,462L291,473L294,473L300,462L294,451L291,451Z" style="fill:rgb(16,95,102);fill-opacity:0.6;"/>
                </g>
                <g transform="matrix(2.55578e-16,-0.826087,4,4.84756e-17,-1619,708.531)">
                    <path d="M291,451L297,462L291,473L294,473L300,462L294,451L291,451Z" style="fill:rgb(16,95,102);fill-opacity:0.3;"/>
                </g>
                <g transform="matrix(4,0,0,0.659722,-659,134.785)">
                    <rect x="211" y="479" width="22" height="3" style="fill:rgb(16,95,102);"/>
                </g>
            </g>
        </g>
    </g>
</svg>
