<?xml version="1.0" encoding="UTF-8" standalone="no"?>
<!DOCTYPE svg PUBLIC "-//W3C//DTD SVG 1.1//EN" "http://www.w3.org/Graphics/SVG/1.1/DTD/svg11.dtd">
<svg width="100%" height="100%" viewBox="0 0 25 25" version="1.1" xmlns="http://www.w3.org/2000/svg" xmlns:xlink="http://www.w3.org/1999/xlink" xml:space="preserve" xmlns:serif="http://www.serif.com/" style="fill-rule:evenodd;clip-rule:evenodd;stroke-linejoin:round;stroke-miterlimit:2;">
    <g transform="matrix(1,0,0,1,-236,-504)">
        <g transform="matrix(0.25,0,0,1.26316,191.077,-63.5498)">
            <rect id="move-down" x="181" y="450" width="96" height="19" style="fill:none;"/>
            <g id="move-down1" serif:id="move-down">
                <g transform="matrix(2.55578e-16,0.826087,4,-4.84756e-17,-1619,218.661)">
                    <path d="M291,451L297,462L291,473L294,473L300,462L294,451L291,451Z" style="fill:currentColor;"/>
                </g>
                <g transform="matrix(2.55578e-16,0.826087,4,-4.84756e-17,-1619,214.531)">
                    <path d="M291,451L297,462L291,473L294,473L300,462L294,451L291,451Z" style="fill:currentColor;fill-opacity:0.6;"/>
                </g>
                <g transform="matrix(2.55578e-16,0.826087,4,-4.84756e-17,-1619,210.4)">
                    <path d="M291,451L297,462L291,473L294,473L300,462L294,451L291,451Z" style="fill:currentColor;fill-opacity:0.3;"/>
                </g>
            </g>
        </g>
    </g>
</svg>
