<?xml version="1.0" encoding="UTF-8" standalone="no"?>
<!DOCTYPE svg PUBLIC "-//W3C//DTD SVG 1.1//EN" "http://www.w3.org/Graphics/SVG/1.1/DTD/svg11.dtd">
<svg width="100%" height="100%" viewBox="0 0 20 21" version="1.1" xmlns="http://www.w3.org/2000/svg" xmlns:xlink="http://www.w3.org/1999/xlink" xml:space="preserve" xmlns:serif="http://www.serif.com/" style="fill-rule:evenodd;clip-rule:evenodd;stroke-linejoin:round;stroke-miterlimit:2;">
    <g transform="matrix(1,0,0,1,-239,-65)">
        <g transform="matrix(0.689655,0,0,0.740741,180.379,45.5217)">
            <rect id="unlock" x="85" y="27" width="29" height="27" style="fill:none;"/>
            <g id="unlock1" serif:id="unlock">
                <g transform="matrix(1.3102,0,0,1.485,-185.125,-25.7785)">
                    <rect x="214.316" y="40.996" width="2" height="10" style="fill:rgb(153,153,153);"/>
                </g>
                <g transform="matrix(1.3102,0,0,1.48435,-185.138,-25.7517)">
                    <rect x="226.316" y="40.996" width="2" height="10.004"/>
                    <rect x="226.316" y="40.996" width="2" height="10.004" style="fill:rgb(153,153,153);"/>
                </g>
                <g transform="matrix(0.962063,0,0,1.83244,-119.327,-43.1112)">
                    <path d="M229.316,51.996C229.316,51.444 228.399,50.996 227.27,50.996L215.361,50.996C214.232,50.996 213.316,51.444 213.316,51.996C213.316,52.548 214.232,52.996 215.361,52.996L227.27,52.996C228.399,52.996 229.316,52.548 229.316,51.996Z" style="fill:rgb(153,153,153);"/>
                </g>
                <g transform="matrix(0.982572,0,0,1.03235,-111.992,-6.54693)">
                    <rect x="210.816" y="32.496" width="19.184" height="8.5" style="fill:none;"/>
                    <clipPath id="_clip1">
                        <rect x="210.816" y="32.496" width="19.184" height="8.5"/>
                    </clipPath>
                    <g clip-path="url(#_clip1)">
                        <g transform="matrix(1.55519,0,0,1.37811,-126.137,-15.7322)">
                            <path d="M223,34.996C226.311,34.996 229,37.684 229,40.996C229,44.307 226.311,46.996 223,46.996C219.689,46.996 217,44.307 217,40.996C217,37.684 219.689,34.996 223,34.996ZM223,36.71C220.635,36.71 218.715,38.631 218.715,40.996C218.715,43.361 220.635,45.281 223,45.281C225.365,45.281 227.285,43.361 227.285,40.996C227.285,38.631 225.365,36.71 223,36.71Z" style="fill:rgb(153,153,153);"/>
                        </g>
                    </g>
                </g>
            </g>
        </g>
    </g>
</svg>
