<?xml version="1.0" encoding="UTF-8" standalone="no"?>
<!DOCTYPE svg PUBLIC "-//W3C//DTD SVG 1.1//EN" "http://www.w3.org/Graphics/SVG/1.1/DTD/svg11.dtd">
<svg width="100%" height="100%" viewBox="0 0 20 21" version="1.1" xmlns="http://www.w3.org/2000/svg" xmlns:xlink="http://www.w3.org/1999/xlink" xml:space="preserve" xmlns:serif="http://www.serif.com/" style="fill-rule:evenodd;clip-rule:evenodd;stroke-linejoin:round;stroke-miterlimit:2;">
    <g transform="matrix(1,0,0,1,-208,-36)">
        <g transform="matrix(0.689655,0,0,0.740741,149.379,16.2702)">
            <rect id="zoom-large" x="85" y="27" width="29" height="27" style="fill:none;"/>
            <g id="zoom-large1" serif:id="zoom-large">
                <g transform="matrix(1.45,0,0,1.35,-205,27)">
                    <rect x="203" y="3" width="14" height="14" style="fill:rgb(204,204,204);"/>
                    <path d="M217,3L217,17L203,17L203,3L217,3ZM216,4L204,4L204,16L216,16L216,4Z" style="fill:rgb(153,153,153);"/>
                </g>
                <g transform="matrix(0.966667,0,0,1.35,-114.133,28.35)">
                    <rect x="215" y="5" width="6" height="1" style="fill:rgb(100,0,125);"/>
                </g>
                <g transform="matrix(-0.966667,0,0,-1.35,313.133,52.65)">
                    <rect x="215" y="5" width="6" height="1" style="fill:rgb(100,0,125);"/>
                </g>
                <g transform="matrix(1.45,0,0,1.08,-218.05,29.7)">
                    <rect x="215" y="5" width="1" height="5" style="fill:rgb(100,0,125);"/>
                </g>
                <g transform="matrix(-1.45,0,0,-1.08,417.05,51.3)">
                    <rect x="215" y="5" width="1" height="5" style="fill:rgb(100,0,125);"/>
                </g>
            </g>
        </g>
    </g>
</svg>
