<?xml version="1.0" encoding="UTF-8" standalone="no"?>
<!DOCTYPE svg PUBLIC "-//W3C//DTD SVG 1.1//EN" "http://www.w3.org/Graphics/SVG/1.1/DTD/svg11.dtd">
<svg width="100%" height="100%" viewBox="0 0 20 21" version="1.1" xmlns="http://www.w3.org/2000/svg" xmlns:xlink="http://www.w3.org/1999/xlink" xml:space="preserve" xmlns:serif="http://www.serif.com/" style="fill-rule:evenodd;clip-rule:evenodd;stroke-linejoin:round;stroke-miterlimit:2;">
    <g transform="matrix(1,0,0,1,-250,-36)">
        <g transform="matrix(0.689655,0,0,0.740741,191.379,16.2702)">
            <rect id="zoom-small" x="85" y="27" width="29" height="27" style="fill:none;"/>
            <clipPath id="_clip1">
                <rect id="zoom-small1" serif:id="zoom-small" x="85" y="27" width="29" height="27"/>
            </clipPath>
            <g clip-path="url(#_clip1)">
                <g transform="matrix(1.45,0,0,1.35,-205,27)">
                    <rect x="203" y="3" width="14" height="14" style="fill:rgb(204,204,204);"/>
                    <path d="M217,3L217,17L203,17L203,3L217,3ZM216,4L204,4L204,16L216,16L216,4Z" style="fill:rgb(153,153,153);"/>
                </g>
                <g transform="matrix(1.20833,0,0,1.35,-174.792,20.25)">
                    <rect x="215" y="5" width="6" height="1" style="fill:rgb(100,0,125);"/>
                </g>
                <g transform="matrix(-1.20833,2.75546e-17,4.43934e-17,-1.35,373.792,60.75)">
                    <rect x="215" y="5" width="6" height="1" style="fill:rgb(100,0,125);"/>
                </g>
                <g transform="matrix(1.45,0,0,1.35,-226.75,20.25)">
                    <rect x="215" y="5" width="1" height="5" style="fill:rgb(100,0,125);"/>
                </g>
                <g transform="matrix(-1.45,-4.13318e-17,-3.55148e-17,-1.35,425.75,60.75)">
                    <rect x="215" y="5" width="1" height="5" style="fill:rgb(100,0,125);"/>
                </g>
            </g>
        </g>
    </g>
</svg>
